<svg width="25" height="25" viewBox="0 0 25 25" fill="none" xmlns="http://www.w3.org/2000/svg">
<g clip-path="url(#clip0_50_248)">
<path d="M17.1093 2.73438C14.119 2.73438 11.6874 5.16602 11.6874 8.15625C11.6874 8.33594 11.7323 8.51172 11.7499 8.6875C8.05261 8.33398 4.78308 6.55273 2.56238 3.82812C2.45886 3.69727 2.29871 3.62695 2.13074 3.63867C1.96472 3.65039 1.81629 3.74609 1.73425 3.89062C1.26746 4.69336 0.999879 5.61719 0.999879 6.60938C0.999879 7.81055 1.42957 8.91016 2.09363 9.8125C1.96472 9.75586 1.8241 9.72461 1.703 9.65625C1.54871 9.57422 1.36316 9.57812 1.21277 9.66797C1.06238 9.75781 0.970582 9.91992 0.968629 10.0938V10.1562C0.968629 11.998 1.92175 13.5977 3.328 14.5781C3.31238 14.5762 3.29675 14.582 3.28113 14.5781C3.10925 14.5488 2.93543 14.6094 2.82019 14.7402C2.70496 14.8711 2.66785 15.0527 2.71863 15.2188C3.27722 16.9551 4.703 18.2812 6.46863 18.7656C5.06238 19.6016 3.43152 20.0938 1.67175 20.0938C1.29089 20.0938 0.925661 20.0742 0.562379 20.0312C0.328004 20 0.103395 20.1367 0.0252697 20.3594C-0.0548084 20.582 0.0330822 20.8301 0.234254 20.9531C2.49011 22.4004 5.16785 23.25 8.04675 23.25C12.7128 23.25 16.3729 21.3008 18.828 18.5156C21.2831 15.7305 22.5624 12.1133 22.5624 8.73438C22.5624 8.5918 22.5507 8.45312 22.5468 8.3125C23.4628 7.61133 24.2811 6.78906 24.9218 5.82812C25.0487 5.64258 25.035 5.39453 24.8886 5.22266C24.744 5.05078 24.4999 4.99805 24.2968 5.09375C24.0389 5.20898 23.7382 5.2207 23.4686 5.3125C23.8241 4.83789 24.1288 4.32617 24.3124 3.75C24.3749 3.55273 24.3065 3.33594 24.1444 3.20703C23.9823 3.08008 23.7557 3.06445 23.578 3.17188C22.7245 3.67773 21.7792 4.0332 20.7811 4.25C19.8124 3.34375 18.537 2.73438 17.1093 2.73438ZM17.1093 3.73438C18.3846 3.73438 19.537 4.2793 20.3436 5.14062C20.4647 5.26562 20.6425 5.31836 20.8124 5.28125C21.4647 5.15234 22.0839 4.96289 22.6874 4.71875C22.3397 5.1875 21.91 5.58789 21.4061 5.89062C21.1776 6.00195 21.0702 6.26562 21.1542 6.50586C21.2362 6.74414 21.4862 6.88281 21.7343 6.82812C22.2343 6.76758 22.6796 6.56445 23.1561 6.4375C22.7284 6.90039 22.2596 7.31836 21.7499 7.6875C21.6112 7.78906 21.535 7.95312 21.5468 8.125C21.5546 8.32812 21.5624 8.5293 21.5624 8.73438C21.5624 11.8594 20.3632 15.252 18.078 17.8438C15.7928 20.4355 12.4374 22.25 8.04675 22.25C6.05261 22.25 4.1698 21.8086 2.46863 21.0312C4.578 20.8691 6.52332 20.123 8.09363 18.8906C8.25769 18.7598 8.32214 18.541 8.25574 18.3418C8.18933 18.1426 8.00574 18.0059 7.79675 18C6.14832 17.9707 4.76746 17.0117 4.03113 15.6562C4.05847 15.6562 4.08191 15.6562 4.10925 15.6562C4.60339 15.6562 5.09168 15.5938 5.54675 15.4688C5.7655 15.4043 5.91589 15.2012 5.90808 14.9727C5.90027 14.7441 5.73816 14.5488 5.5155 14.5C3.73621 14.1406 2.40222 12.6914 2.09363 10.8906C2.59754 11.0645 3.11316 11.2012 3.67175 11.2188C3.90027 11.2324 4.1073 11.0898 4.17761 10.873C4.24793 10.6562 4.16199 10.418 3.96863 10.2969C2.78113 9.50195 1.99988 8.14844 1.99988 6.60938C1.99988 6.03906 2.14832 5.51562 2.34363 5.01562C4.84363 7.75977 8.34363 9.58203 12.2968 9.78125C12.453 9.78906 12.6053 9.72461 12.7069 9.60547C12.8085 9.48437 12.8475 9.32422 12.8124 9.17188C12.7362 8.84766 12.6874 8.50391 12.6874 8.15625C12.6874 5.70703 14.66 3.73438 17.1093 3.73438Z" fill="black"/>
</g>
<defs>
<clipPath id="clip0_50_248">
<rect width="25" height="25" fill="white"/>
</clipPath>
</defs>
</svg>
