<svg xmlns="http://www.w3.org/2000/svg" xmlns:xlink="http://www.w3.org/1999/xlink" width="148" height="13" viewBox="0 0 148 13">
  <defs>
    <clipPath id="clip-path">
      <rect id="Rectangle_12" data-name="Rectangle 12" width="148" height="13" transform="translate(1389 2349)" fill="#fff" stroke="#707070" stroke-width="1"/>
    </clipPath>
  </defs>
  <g id="Mask_Group_2" data-name="Mask Group 2" transform="translate(-1389 -2349)" clip-path="url(#clip-path)">
    <path id="launching_soon" data-name="launching soon" d="M.335,12.231,2.356.771,4.779,1.2,3.11,10.66l4.913.866-.352,2Zm11.208,1.976-2.6-.458L14.923,2.987l3.122.551,1.93,12.156-2.6-.458L16.067,5.889l-.09-.016Zm.632-4.533,6.133,1.081-.333,1.891-6.133-1.081ZM30.454,5.726l2.423.427-1.312,7.442a3.976,3.976,0,0,1-2.906,3.261,6.326,6.326,0,0,1-4.986-.879,3.959,3.959,0,0,1-1.61-4.057l1.312-7.442L25.8,4.9,24.522,12.14a2.376,2.376,0,0,0,.08,1.214,2.113,2.113,0,0,0,.676.944,2.768,2.768,0,0,0,2.451.432,2.074,2.074,0,0,0,.952-.657,2.34,2.34,0,0,0,.5-1.113Zm14,2.469-2.021,11.46-2.093-.369-3.714-8.092-.084-.015-1.272,7.213-2.423-.427L34.87,6.5,37,6.879l3.676,8.079.1.018,1.271-7.207ZM55.86,14.342,53.41,13.91a2.431,2.431,0,0,0-.125-.893,2.181,2.181,0,0,0-.419-.732,2.378,2.378,0,0,0-.679-.535,2.915,2.915,0,0,0-.887-.3,2.762,2.762,0,0,0-1.628.169,2.867,2.867,0,0,0-1.249,1.1,5.133,5.133,0,0,0-.721,1.961,5.23,5.23,0,0,0,0,2.123,2.833,2.833,0,0,0,.808,1.441,2.8,2.8,0,0,0,1.453.695,3.066,3.066,0,0,0,.924.03,2.4,2.4,0,0,0,.81-.244,2.194,2.194,0,0,0,.645-.515,2.414,2.414,0,0,0,.446-.764l2.449.443a4.5,4.5,0,0,1-.744,1.438,4.644,4.644,0,0,1-1.243,1.125,4.841,4.841,0,0,1-1.671.64,5.64,5.64,0,0,1-2.034-.018,5.49,5.49,0,0,1-2.619-1.177,5,5,0,0,1-1.548-2.344,6.851,6.851,0,0,1-.132-3.306,6.772,6.772,0,0,1,1.267-3.065,4.988,4.988,0,0,1,2.267-1.666A5.446,5.446,0,0,1,51.621,9.3a5.968,5.968,0,0,1,1.8.605,4.753,4.753,0,0,1,1.372,1.084,4.268,4.268,0,0,1,.844,1.493A4.936,4.936,0,0,1,55.86,14.342Zm.424,7.754,2.021-11.46,2.423.427-.834,4.728,4.918.867.834-4.728,2.417.426-2.021,11.46-2.417-.426.835-4.734-4.918-.867-.835,4.734Zm16.2-8.959L70.464,24.6l-2.423-.427,2.021-11.46Zm11.578,2.042-2.021,11.46-2.093-.369-3.714-8.092-.084-.015L74.88,25.375l-2.423-.427,2.021-11.46,2.126.375,3.676,8.079.1.018,1.271-7.207Zm8.947,5.4a2.551,2.551,0,0,0-.2-.78,2.068,2.068,0,0,0-.426-.629,2.267,2.267,0,0,0-.634-.464,2.98,2.98,0,0,0-.835-.268,2.8,2.8,0,0,0-1.621.164,2.906,2.906,0,0,0-1.254,1.089,5.04,5.04,0,0,0-.727,1.96,5.191,5.191,0,0,0,0,2.1,2.89,2.89,0,0,0,.8,1.463,2.847,2.847,0,0,0,1.5.714,3.161,3.161,0,0,0,1.456-.043,2.118,2.118,0,0,0,1.042-.676,2.515,2.515,0,0,0,.537-1.215l.479.16-2.954-.521.322-1.824,4.8.846-.255,1.444a5.114,5.114,0,0,1-1.1,2.484,4.415,4.415,0,0,1-2.051,1.358,6.058,6.058,0,0,1-5.371-1.08,5.008,5.008,0,0,1-1.544-2.367,6.892,6.892,0,0,1-.125-3.253,7.252,7.252,0,0,1,.841-2.413,5.391,5.391,0,0,1,1.469-1.656,5.009,5.009,0,0,1,1.911-.857,5.616,5.616,0,0,1,2.179-.025,5.685,5.685,0,0,1,1.763.605,4.905,4.905,0,0,1,1.348,1.057,4.368,4.368,0,0,1,.853,1.414,4.226,4.226,0,0,1,.257,1.649Zm14.324,2.1a1.439,1.439,0,0,0-.391-1.154,2.318,2.318,0,0,0-1.316-.619A2.68,2.68,0,0,0,104.6,20.9a1.432,1.432,0,0,0-.707.343,1.1,1.1,0,0,0-.329.623.957.957,0,0,0,.034.56,1.365,1.365,0,0,0,.327.467,3.063,3.063,0,0,0,.532.388,6.1,6.1,0,0,0,.669.326l.987.428a7.372,7.372,0,0,1,1.3.69,4.245,4.245,0,0,1,.964.88,2.906,2.906,0,0,1,.541,1.088,3.07,3.07,0,0,1,.039,1.317,3.209,3.209,0,0,1-.859,1.729,3.459,3.459,0,0,1-1.732.923,6.2,6.2,0,0,1-2.463,0,6.4,6.4,0,0,1-2.342-.851,3.6,3.6,0,0,1-1.379-1.541,3.825,3.825,0,0,1-.232-2.182l2.344.413a1.789,1.789,0,0,0,.161,1.021,1.866,1.866,0,0,0,.687.715,3.184,3.184,0,0,0,1.091.389,2.949,2.949,0,0,0,1.1.009,1.665,1.665,0,0,0,.8-.373,1.171,1.171,0,0,0,.381-.689.969.969,0,0,0-.115-.69,1.764,1.764,0,0,0-.581-.564,6.861,6.861,0,0,0-1-.522l-1.192-.533a5.307,5.307,0,0,1-2.094-1.506,2.6,2.6,0,0,1-.478-2.167,3.049,3.049,0,0,1,.875-1.721,3.794,3.794,0,0,1,1.764-.941A5.555,5.555,0,0,1,106,18.885a5.381,5.381,0,0,1,2.15.829,3.581,3.581,0,0,1,1.274,1.477,3.263,3.263,0,0,1,.231,1.9Zm14.21,5.015a6.74,6.74,0,0,1-1.273,3.064,5.011,5.011,0,0,1-2.279,1.669,5.853,5.853,0,0,1-5.472-.971,5.019,5.019,0,0,1-1.565-2.347,6.762,6.762,0,0,1-.143-3.308,6.764,6.764,0,0,1,1.267-3.065,4.977,4.977,0,0,1,2.273-1.665,5.83,5.83,0,0,1,5.472.965A4.973,4.973,0,0,1,121.4,24.38,6.736,6.736,0,0,1,121.544,27.7Zm-2.457-.433a5.2,5.2,0,0,0,0-2.112,2.815,2.815,0,0,0-.79-1.443,2.988,2.988,0,0,0-3.066-.541,2.854,2.854,0,0,0-1.242,1.085,5.287,5.287,0,0,0-.719,1.985,5.261,5.261,0,0,0,0,2.111,2.858,2.858,0,0,0,.795,1.444,2.991,2.991,0,0,0,3.067.541,2.816,2.816,0,0,0,1.236-1.086A5.193,5.193,0,0,0,119.087,27.262Zm14.782,2.607a6.718,6.718,0,0,1-1.273,3.064,5,5,0,0,1-2.279,1.669,5.851,5.851,0,0,1-5.471-.971,5.011,5.011,0,0,1-1.565-2.347,6.75,6.75,0,0,1-.144-3.308,6.765,6.765,0,0,1,1.268-3.065,4.974,4.974,0,0,1,2.272-1.665,5.83,5.83,0,0,1,5.472.965,4.959,4.959,0,0,1,1.572,2.343A6.724,6.724,0,0,1,133.869,29.868Zm-2.456-.433a5.184,5.184,0,0,0,0-2.112,2.808,2.808,0,0,0-.79-1.443,2.988,2.988,0,0,0-3.066-.541,2.846,2.846,0,0,0-1.241,1.085,5.253,5.253,0,0,0-.719,1.985,5.26,5.26,0,0,0,0,2.111,2.844,2.844,0,0,0,.795,1.444,2.988,2.988,0,0,0,3.066.541,2.816,2.816,0,0,0,1.236-1.086A5.193,5.193,0,0,0,131.413,29.435Zm14.846-3.29-2.02,11.46-2.093-.369-3.714-8.092-.084-.015-1.271,7.213-2.423-.427,2.02-11.46,2.127.375,3.675,8.079.1.018,1.271-7.207Z" transform="matrix(0.985, -0.174, 0.174, 0.985, 1387.446, 2349.248)" fill="#fff"/>
  </g>
</svg>
